<svg xmlns="http://www.w3.org/2000/svg" width="256" height="256" viewBox="0 0 100 100"><rect width="100" height="100" rx="50" fill="#7162f8"></rect><path fill="#fff" d="M71.42 77.18L71.42 77.18Q70.88 77.36 69.98 77.58Q69.08 77.81 68 77.81L68 77.81Q64.04 77.81 64.04 74.48L64.04 74.48L64.04 52.70L35.96 52.70L35.96 77.18Q35.42 77.36 34.52 77.58Q33.62 77.81 32.54 77.81L32.54 77.81Q28.58 77.81 28.58 74.48L28.58 74.48L28.58 22.82Q29.03 22.64 29.98 22.41Q30.92 22.19 32 22.19L32 22.19Q35.96 22.19 35.96 25.52L35.96 25.52L35.96 46.58L64.04 46.58L64.04 22.82Q64.49 22.64 65.44 22.41Q66.38 22.19 67.46 22.19L67.46 22.19Q71.42 22.19 71.42 25.52L71.42 25.52L71.42 77.18Z"></path></svg>